HIERARCHY
ROOT Hips
{
    OFFSET   0.000000   0.000000   0.000000
    CHANNELS 6 Xposition Yposition Zposition Zrotation Xrotation Yrotation
    JOINT Chest
    {
        OFFSET   0.000000   8.007230   0.000000
        CHANNELS 3 Zrotation Xrotation Yrotation
        JOINT Chest2
        {
            OFFSET   0.000000  22.077100   0.000000
            CHANNELS 3 Zrotation Xrotation Yrotation
            JOINT Neck
            {
                OFFSET   0.000000  23.254800   0.000000
                CHANNELS 3 Zrotation Xrotation Yrotation
                JOINT Head
                {
                    OFFSET   0.000010  14.370000   1.956600
                    CHANNELS 3 Zrotation Xrotation Yrotation
                    End Site
                    {
                        OFFSET   0.000000  19.566000   0.000000
                    }
                }
            }
            JOINT LeftCollar
            {
                OFFSET   3.911900  19.017000  -0.467062
                CHANNELS 3 Zrotation Xrotation Yrotation
                JOINT LeftShoulder
                {
                    OFFSET  10.383700   0.000000   0.000000
                    CHANNELS 3 Zrotation Xrotation Yrotation
                    JOINT LeftElbow
                    {
                        OFFSET  26.662100   0.001193   0.000835
                        CHANNELS 3 Zrotation Xrotation Yrotation
                        JOINT LeftWrist
                        {
                            OFFSET  28.869000  -0.000058  -0.000075
                            CHANNELS 3 Zrotation Xrotation Yrotation
                            JOINT LeftFinger0
                            {
                                OFFSET   2.044660  -2.323460   3.252850
                                CHANNELS 3 Zrotation Xrotation Yrotation
                                JOINT LeftFinger01
                                {
                                    OFFSET   3.088130   0.000000   0.000000
                                    CHANNELS 3 Zrotation Xrotation Yrotation
                                    JOINT LeftFinger02
                                    {
                                        OFFSET   2.639450   0.000000   0.000000
                                        CHANNELS 3 Zrotation Xrotation Yrotation
                                        End Site
                                        {
                                            OFFSET   2.582190   0.000000   0.000000
                                        }
                                    }
                                }
                            }
                            JOINT LeftFinger1
                            {
                                OFFSET   8.364480   0.000000   3.252850
                                CHANNELS 3 Zrotation Xrotation Yrotation
                                JOINT LeftFinger11
                                {
                                    OFFSET   4.646920   0.000000   0.000000
                                    CHANNELS 3 Zrotation Xrotation Yrotation
                                    JOINT LeftFinger12
                                    {
                                        OFFSET   2.323460   0.000000   0.000000
                                        CHANNELS 3 Zrotation Xrotation Yrotation
                                        End Site
                                        {
                                            OFFSET   2.273050   0.000000   0.000000
                                        }
                                    }
                                }
                            }
                            JOINT LeftFinger2
                            {
                                OFFSET   8.364490   0.000016   1.078090
                                CHANNELS 3 Zrotation Xrotation Yrotation
                                JOINT LeftFinger21
                                {
                                    OFFSET   5.111620   0.000000   0.000000
                                    CHANNELS 3 Zrotation Xrotation Yrotation
                                    JOINT LeftFinger22
                                    {
                                        OFFSET   2.788150   0.000012   0.000000
                                        CHANNELS 3 Zrotation Xrotation Yrotation
                                        End Site
                                        {
                                            OFFSET   2.727660   0.000000   0.000000
                                        }
                                    }
                                }
                            }
                            JOINT LeftFinger3
                            {
                                OFFSET   7.899780   0.000014  -1.078090
                                CHANNELS 3 Zrotation Xrotation Yrotation
                                JOINT LeftFinger31
                                {
                                    OFFSET   4.646930   0.000000   0.000000
                                    CHANNELS 3 Zrotation Xrotation Yrotation
                                    JOINT LeftFinger32
                                    {
                                        OFFSET   2.323470   0.000000   0.000000
                                        CHANNELS 3 Zrotation Xrotation Yrotation
                                        End Site
                                        {
                                            OFFSET   2.273050   0.000000   0.000000
                                        }
                                    }
                                }
                            }
                            JOINT LeftFinger4
                            {
                                OFFSET   7.435090   0.000000  -3.252850
                                CHANNELS 3 Zrotation Xrotation Yrotation
                                JOINT LeftFinger41
                                {
                                    OFFSET   3.717550   0.000000   0.000000
                                    CHANNELS 3 Zrotation Xrotation Yrotation
                                    JOINT LeftFinger42
                                    {
                                        OFFSET   1.858770   0.000000   0.000000
                                        CHANNELS 3 Zrotation Xrotation Yrotation
                                        End Site
                                        {
                                            OFFSET   1.818440   0.000000   0.000000
                                        }
                                    }
                                }
                            }
                        }
                    }
                }
            }
            JOINT RightCollar
            {
                OFFSET  -3.911900  19.017000  -0.467063
                CHANNELS 3 Zrotation Xrotation Yrotation
                JOINT RightShoulder
                {
                    OFFSET -10.383700   0.000023   0.000000
                    CHANNELS 3 Zrotation Xrotation Yrotation
                    JOINT RightElbow
                    {
                        OFFSET -26.662100   0.001246   0.001011
                        CHANNELS 3 Zrotation Xrotation Yrotation
                        JOINT RightWrist
                        {
                            OFFSET -28.869000  -0.000026  -0.000078
                            CHANNELS 3 Zrotation Xrotation Yrotation
                            JOINT RightFinger0
                            {
                                OFFSET  -2.044660  -2.323490   3.252850
                                CHANNELS 3 Zrotation Xrotation Yrotation
                                JOINT RightFinger01
                                {
                                    OFFSET  -3.088130   0.000000   0.000000
                                    CHANNELS 3 Zrotation Xrotation Yrotation
                                    JOINT RightFinger02
                                    {
                                        OFFSET  -2.639460   0.000000   0.000000
                                        CHANNELS 3 Zrotation Xrotation Yrotation
                                        End Site
                                        {
                                            OFFSET  -2.582190   0.000000   0.000000
                                        }
                                    }
                                }
                            }
                            JOINT RightFinger1
                            {
                                OFFSET  -8.364480   0.000000   3.252850
                                CHANNELS 3 Zrotation Xrotation Yrotation
                                JOINT RightFinger11
                                {
                                    OFFSET  -4.646920   0.000000   0.000000
                                    CHANNELS 3 Zrotation Xrotation Yrotation
                                    JOINT RightFinger12
                                    {
                                        OFFSET  -2.323470   0.000000   0.000000
                                        CHANNELS 3 Zrotation Xrotation Yrotation
                                        End Site
                                        {
                                            OFFSET  -2.273050   0.000000   0.000000
                                        }
                                    }
                                }
                            }
                            JOINT RightFinger2
                            {
                                OFFSET  -8.364480   0.000000   1.078090
                                CHANNELS 3 Zrotation Xrotation Yrotation
                                JOINT RightFinger21
                                {
                                    OFFSET  -5.111620   0.000000   0.000000
                                    CHANNELS 3 Zrotation Xrotation Yrotation
                                    JOINT RightFinger22
                                    {
                                        OFFSET  -2.788160   0.000000   0.000000
                                        CHANNELS 3 Zrotation Xrotation Yrotation
                                        End Site
                                        {
                                            OFFSET  -2.727660   0.000000   0.000000
                                        }
                                    }
                                }
                            }
                            JOINT RightFinger3
                            {
                                OFFSET  -7.899780   0.000000  -1.078090
                                CHANNELS 3 Zrotation Xrotation Yrotation
                                JOINT RightFinger31
                                {
                                    OFFSET  -4.646930   0.000000   0.000000
                                    CHANNELS 3 Zrotation Xrotation Yrotation
                                    JOINT RightFinger32
                                    {
                                        OFFSET  -2.323470   0.000000   0.000000
                                        CHANNELS 3 Zrotation Xrotation Yrotation
                                        End Site
                                        {
                                            OFFSET  -2.273050   0.000000   0.000000
                                        }
                                    }
                                }
                            }
                            JOINT RightFinger4
                            {
                                OFFSET  -7.435090   0.000000  -3.252850
                                CHANNELS 3 Zrotation Xrotation Yrotation
                                JOINT RightFinger41
                                {
                                    OFFSET  -3.717550   0.000000   0.000000
                                    CHANNELS 3 Zrotation Xrotation Yrotation
                                    JOINT RightFinger42
                                    {
                                        OFFSET  -1.858760   0.000000   0.000000
                                        CHANNELS 3 Zrotation Xrotation Yrotation
                                        End Site
                                        {
                                            OFFSET  -1.818440   0.000000   0.000000
                                        }
                                    }
                                }
                            }
                        }
                    }
                }
            }
        }
    }
    JOINT LeftHip
    {
        OFFSET   9.783010   0.000000   0.000000
        CHANNELS 3 Zrotation Xrotation Yrotation
        JOINT LeftKnee
        {
            OFFSET   0.000073 -41.789100   0.001749
            CHANNELS 3 Zrotation Xrotation Yrotation
            JOINT LeftAnkle
            {
                OFFSET   0.000111 -41.133200  -0.000179
                CHANNELS 3 Zrotation Xrotation Yrotation
                JOINT LeftToe
                {
                    OFFSET   0.000000  -6.358960  14.674500
                    CHANNELS 3 Zrotation Xrotation Yrotation
                    End Site
                    {
                        OFFSET   0.000000   0.000000   3.913200
                    }
                }
            }
        }
    }
    JOINT RightHip
    {
        OFFSET  -9.783010   0.000000   0.000000
        CHANNELS 3 Zrotation Xrotation Yrotation
        JOINT RightKnee
        {
            OFFSET   0.000424 -41.789200   0.005205
            CHANNELS 3 Zrotation Xrotation Yrotation
            JOINT RightAnkle
            {
                OFFSET   0.000000 -41.133200  -0.000155
                CHANNELS 3 Zrotation Xrotation Yrotation
                JOINT RightToe
                {
                    OFFSET   0.000000  -6.358960  14.674500
                    CHANNELS 3 Zrotation Xrotation Yrotation
                    End Site
                    {
                        OFFSET   0.000000   0.000000   3.913200
                    }
                }
            }
        }
    }
}
MOTION
Frames: 4
Frame Time:   0.016667
  0.397995  90.020300   2.492540  -1.738890 -10.812300  -6.105290  -0.881907   6.468850  -0.932284  -1.673180  12.950600  -1.780750   0.627410   0.922352  -0.010963   1.031040   1.869640  13.451400  -9.145740  -4.690160   1.366080 -55.834600  35.477600 -40.492300  17.931800 -15.912700 -79.668300  33.947800   9.870380 -15.398400  81.766600  53.775200 -113.095000 -24.288600  -0.004747  -0.002156  -7.144320  -0.000531  -0.004927 -84.845400   4.968100  -0.450270 -69.434900   0.004881  -0.003889 -52.076100   0.003628   0.004870 -82.956000  -0.001323  -0.002827 -82.956100   0.002775  -0.002686 -62.216800   0.003067   0.010342 -75.709500  -4.850270   1.232460 -75.761700   0.000233  -0.003369 -56.821300   0.013027  -0.002492 -78.382200  -9.801860   2.004370 -110.000000  -0.004366   0.001123 -78.475500   0.001390   0.003699   8.540820  -0.776635  12.196900  32.849900  16.926100  60.527400 -24.767700 -16.533500  85.851800  32.221000  58.143700 -54.640300 -42.225900  35.674900  76.792100  19.687000   0.052912  -0.017172   4.843490   0.026590  -0.001336  88.306300   4.922360   0.120818  72.537900  -0.002868   0.015259  54.403400   0.009127   0.007671  88.430800  -0.001182  -0.001587  88.597600  -0.004824   0.019866  66.448200   0.010374   0.002546  88.996100  -5.006680  -0.088422  99.693300   0.002570   0.019786  74.770100   0.015334  -0.000740  88.984600  -9.999030  -0.176308 110.000000   0.002296  -0.000080  80.000000  -0.001668  -0.000141   0.593869  12.240000   3.273100   0.220699   2.177010  14.230300  -5.314750  -5.543690   5.431560   0.000000   0.000000  -0.000000   1.078100  10.757200  -7.748740   0.378665   3.671620  -7.796270 -10.510900  -0.225549   1.192960  -0.000000   0.000000   0.000000
  0.397367  90.021800   2.497800  -1.750290 -10.729300  -6.152740  -0.859282   6.431940  -0.948935  -1.626010  12.876700  -1.817360   0.664601   0.878527  -0.010711   1.092380   1.780820  13.372700  -9.145090  -4.642330   1.415050 -55.987600  35.430800 -40.372700  17.992400 -15.703000 -79.523200  33.780200   9.800830 -15.224100  81.944500  53.859400 -113.163000 -24.468300  -0.004736  -0.002091  -7.234170  -0.000531  -0.004920 -84.830300   4.968070  -0.450195 -69.422500   0.004904  -0.003882 -52.066800   0.003588   0.004889 -82.965300  -0.001328  -0.002854 -82.965400   0.002809  -0.002673 -62.224000   0.003144   0.010366 -75.718000  -4.850840   1.231430 -75.770100   0.000216  -0.003337 -56.827600   0.013044  -0.002492 -78.380400  -9.802350   2.003830 -110.000000  -0.004300   0.001079 -78.473600   0.001391   0.003725   8.691360  -0.668156  12.253900  33.035900  17.317600  60.100700 -24.529100 -16.705500  85.760600  27.315100  60.173200 -49.942600 -41.389900  35.485400  76.393700  23.279200   0.038246  -0.016227   6.639600   0.019489  -0.001379  89.442700   5.003350   0.048983  74.649100  -0.002462   0.011318  55.986800   0.009140   0.004739  89.411200   0.001450  -0.001501  90.667300  -0.004597   0.012928  68.000400   0.007392   0.000489  88.996100  -5.006440  -0.088751 101.516000   0.003142   0.010926  76.137100   0.008984  -0.003142  88.984600  -9.999120  -0.176317 110.000000   0.002231   0.000000  80.000000  -0.001469   0.000241   0.600090  12.144200   3.292130   0.223625   2.201860  14.282100  -5.311400  -5.553200   5.404100  -0.000000   0.000000  -0.000000   1.086380  10.686600  -7.696610   0.375199   3.650530  -7.795110 -10.508700  -0.215826   1.193370  -0.000000   0.000000   0.000000
  0.392482  90.024200   2.501880  -1.759850 -10.639600  -6.198670  -0.839402   6.393260  -0.962528  -1.584810  12.799200  -1.847470   0.704281   0.832427  -0.010463   1.157480   1.687290  13.302100  -9.145190  -4.596590   1.469590 -56.158100  35.390600 -40.240100  18.032700 -15.494300 -79.362400  33.600600   9.730540 -14.991200  82.165200  53.944200 -113.235000 -24.659100  -0.004733  -0.002114  -7.329560  -0.000524  -0.004923 -84.819300   4.968060  -0.450094 -69.413500   0.004932  -0.003876 -52.060100   0.003552   0.004913 -82.980600  -0.001337  -0.002876 -82.980600   0.002842  -0.002669 -62.235400   0.003216   0.010390 -75.731500  -4.851410   1.230730 -75.783700   0.000206  -0.003310 -56.837700   0.013061  -0.002498 -78.386400  -9.802860   2.002960 -110.000000  -0.004226   0.001032 -78.479500   0.001401   0.003749   8.860410  -0.573591  12.310200  33.304800  17.773100  59.549900 -24.279800 -16.758100  85.683000  20.664800  62.185200 -43.455500 -40.941800  35.928100  76.498900  25.904500   0.019431  -0.009575   7.952260   0.010139  -0.001344  89.219500   5.003190   0.067619  76.074200  -0.001881   0.009310  57.055600   0.009125   0.003492  89.205600   0.002903  -0.001397  91.915800  -0.004393   0.008673  68.936800   0.005575  -0.000809  88.996000  -5.006160  -0.089472 102.527000   0.003873   0.006603  76.894800   0.005601  -0.004411  88.984600  -9.999220  -0.176310 110.000000   0.002142   0.000111  80.000000  -0.001290   0.000623   0.607484  12.099000   3.316960   0.223707   2.161570  14.329500  -5.310340  -5.559070   5.376770  -0.000000   0.000000   0.000000   1.097500  10.604000  -7.652060   0.371555   3.633690  -7.806730 -10.509600  -0.206685   1.208580   0.000000   0.000000   0.000000
  0.384868  90.027400   2.505640  -1.767690 -10.550900  -6.237470  -0.821992   6.357520  -0.972626  -1.548980  12.727600  -1.870190   0.746737   0.779138  -0.010179   1.227140   1.579150  13.228100  -9.147540  -4.570610   1.524350 -56.372400  35.334800 -40.061600  18.081900 -15.251200 -79.175600  33.396500   9.629800 -14.708400  82.408900  54.036000 -113.317000 -24.842000  -0.004730  -0.002149  -7.421000  -0.000518  -0.004925 -84.814100   4.968040  -0.449967 -69.409100   0.004960  -0.003870 -52.056900   0.003519   0.004937 -83.007900  -0.001346  -0.002900 -83.007800   0.002873  -0.002668 -62.255900   0.003285   0.010416 -75.758400  -4.851990   1.229090 -75.810500   0.000197  -0.003283 -56.857800   0.013074  -0.002504 -78.413300  -9.803410   1.999270 -110.000000  -0.004149   0.000986 -78.506100   0.001415   0.003772   9.057850  -0.527149  12.361400  33.673800  18.259700  58.869000 -23.998200 -16.753600  85.591800  12.789800  63.889300 -35.649000 -40.427900  36.572900  76.767600  27.758600   0.007218  -0.003734   8.879330   0.003826  -0.001286  88.996200   5.002830   0.087488  77.133700  -0.001377   0.007570  57.850300   0.009081   0.002650  89.000000   0.003389  -0.001362  92.718100  -0.004169   0.005169  69.538500   0.004283  -0.002057  88.996000  -5.005810  -0.090231 103.114000   0.004558   0.003577  77.335300   0.003008  -0.005282  88.984600  -9.999310  -0.176303 110.000000   0.002049   0.000233  80.000000  -0.001116   0.001007   0.615263  12.058000   3.339870   0.223993   2.121330  14.373100  -5.310730  -5.561500   5.348640  -0.000000   0.000000   0.000000   1.109980  10.522500  -7.616810   0.368021   3.614820  -7.829760 -10.511500  -0.198024   1.238410   0.000000   0.000000   0.000000
